<?xml version="1.0" encoding="utf-8"?>
<!-- Generator: Adobe Illustrator 22.0.1, SVG Export Plug-In . SVG Version: 6.00 Build 0)  -->
<svg version="1.1" id="Layer_1" xmlns="http://www.w3.org/2000/svg" xmlns:xlink="http://www.w3.org/1999/xlink" x="0px" y="0px"
	 width="1000px" height="464.6231995px" viewBox="0 0 1000 464.6231995" enable-background="new 0 0 1000 464.6231995"
	 xml:space="preserve">
<g>
	<path fill="#FFFFFF" d="M75.813736,232.4557648c0,85.2241669,69.3338623,154.5580292,154.5579529,154.5580292h144.365921
		c9.0664673,0,16.0979004-8.617981,16.0979004-16.0397339V87.7451553c0-17.8921356,14.5570679-32.4532509,32.4449463-32.4532509
		c11.4753723,0,22.1698914,6.0844536,27.9013672,15.8859978c0.7185059,1.2336197,44.4270325,76.5895844,90.697998,156.3770905
		c44.2110596,76.2406616,89.9338379,155.0772095,90.6523438,156.3147583
		c2.3133545,3.9455872,6.8361816,6.4915466,11.5293579,6.4915466c7.4342041,0,13.4854736-6.0470581,13.4854736-13.4855347
		V87.7451553c0-17.8921356,14.5487671-32.4532509,32.4450073-32.4532509c11.4753418,0,22.1698608,6.0844536,27.8971558,15.8859978
		c0.7268677,1.2336197,44.3979492,76.5895844,90.6399536,156.3812866
		c44.1694336,76.2240448,89.850708,155.0396576,90.5858154,156.3105621
		c2.3133545,3.9455872,6.8361816,6.4915466,11.5293579,6.4915466c7.4343262,0,13.4771729-6.0470581,13.4771729-13.4855347V2.0226164
		h-56.9031982v223.1318054c0,0-103.1036987-177.4629822-106.4429321-183.1694794
		C745.7240601,16.2557125,717.1831055,0,686.8065186,0c-47.5834961,0-86.1710205,38.6042442-86.1710205,86.1835098v138.9709167
		c0,0-103.0996094-177.4629822-106.4429016-183.1694794C479.1412659,16.2557125,450.6003723,0,420.2237244,0
		c-47.5834351,0-86.1710205,38.6042442-86.1710205,86.1835098v228.3565674
		c0.0290527,8.3106079-6.2173767,15.553772-15.3129578,15.5703735h-87.7575226
		c-53.9295807,0-97.6505432-43.7208557-97.6505432-97.6546783c0-53.9336853,43.7209625-97.6546783,97.6505432-97.6546783h73.5078278
		V77.8978577h-74.1183624C145.1475983,77.8978577,75.813736,147.23172,75.813736,232.4557648"/>
	<path fill="#FFFFFF" d="M943.0925903,2.0208421v374.8573303c0,17.8961792-14.5488281,32.4532471-32.4450073,32.4532471
		c-11.4753418,0-22.1699219-6.0844727-27.9014282-15.881958c-0.7183838-1.23349-44.3978271-76.5936279-90.6314697-156.3811493
		c-44.1777954-76.219986-89.8466187-155.0439758-90.5942383-156.3106689
		c-2.3049927-3.945488-6.8361816-6.4956207-11.5292969-6.4956207c-7.4342651,0-13.4772339,6.0470657-13.4772339,13.4813614
		v289.1347961c0,17.8961792-14.5570068,32.4532471-32.4490967,32.4532471c-11.4753418,0-22.1615601-6.0844727-27.9013672-15.881958
		c-0.7184448-1.23349-44.4269409-76.5895691-90.697998-156.3811493
		c-44.2151794-76.2365875-89.9338074-155.072998-90.6565247-156.3106689
		c-2.313324-3.945488-6.8361816-6.4956207-11.5292969-6.4956207c-7.4342957,0-13.4772339,6.0470657-13.4772339,13.4813614
		v283.2329712c0,18.6480408-16.3844299,35.0075684-35.0614319,35.0075684H230.3749695
		c-95.6818695,0-173.5298462-77.8396912-173.5298462-173.5299225c0-95.6818695,77.8479843-173.5256042,173.5298462-173.5256042
		h74.1142273V2.0208421H230.441452C103.1742935,2.0208421,0,105.1869583,0,232.4539948
		c0,127.271347,103.1742935,230.4415131,230.441452,230.4415131h145.7489777
		c55.2128906,0.0290222,90.71875-32.3204041,90.644043-91.9897461V239.4688873c0,0,103.8388062,178.7255096,106.4470215,183.1735382
		c15.0512695,25.7250671,43.5922241,41.9807739,73.968811,41.9807739c47.5876465,0,86.1669312-38.604126,86.1669312-86.1793518
		V239.4688873c0,0,103.1036987,177.4670563,106.4428711,183.1735382
		c15.0554199,25.7250671,43.5963745,41.9807739,73.9729614,41.9807739c47.5834961,0,86.1669312-38.604126,86.1669312-86.1793518
		V2.0208421H943.0925903z"/>
</g>
</svg>
